<svg width="267" height="203" viewBox="0 0 267 203" fill="none" xmlns="http://www.w3.org/2000/svg">
<path fill-rule="evenodd" clip-rule="evenodd" d="M205.215 21.849C206.613 16.1192 211.628 12.6159 216.416 14.0241C221.204 15.4324 223.951 21.2189 222.552 26.9487L220.504 35.3407C239.246 44.8517 249.297 69.6403 243.3 94.2094L156.611 68.7109C162.607 44.1419 182.603 28.1911 203.167 30.2409L205.215 21.849ZM207.634 30.9722C208.362 31.1387 209.09 31.3286 209.817 31.5426L214.151 32.8174C214.879 33.0312 215.596 33.2663 216.303 33.522L218.218 25.6738C218.918 22.8088 217.544 19.9156 215.15 19.2115C212.756 18.5074 210.249 20.2591 209.549 23.124L207.634 30.9722Z" fill="#FF6900"/>
<path d="M153.177 73.2609C151.979 72.9087 150.727 73.7846 150.376 75.2171C150.027 76.6495 150.714 78.0962 151.91 78.4482L242.935 105.222C244.132 105.574 245.386 104.698 245.735 103.265C246.086 101.833 245.399 100.386 244.201 100.034L153.177 73.2609Z" fill="#FF6900"/>
<path d="M157.146 85.5481C155.95 85.196 154.696 86.0718 154.346 87.5043C153.996 88.9367 154.683 90.3834 155.88 90.7354L233.901 113.684C235.099 114.036 236.351 113.16 236.702 111.728C237.051 110.295 236.364 108.849 235.168 108.497L157.146 85.5481Z" fill="#FF6900"/>
<g filter="url(#filter0_d_440_103)">
<path d="M34.7533 143.501C34.7533 140.987 34.2222 138.839 33.1599 137.058C32.1439 135.277 30.8046 133.888 29.142 132.893C27.5255 131.898 25.7244 131.007 23.7385 130.221C21.7526 129.435 19.7666 128.65 17.7807 127.864C15.7948 127.026 13.9706 126.056 12.308 124.956C10.6915 123.804 9.3522 122.232 8.28998 120.241C7.27393 118.251 6.76591 115.841 6.76591 113.012C6.76591 108.14 8.33616 104.316 11.4767 101.539C14.6633 98.7628 18.7275 97.3745 23.6692 97.3745C28.657 97.3745 32.6288 98.658 35.5846 101.225C38.5404 103.792 40.0182 106.595 40.0182 109.633C40.0182 111.729 39.6488 113.3 38.9098 114.348C38.2171 115.343 37.3858 115.841 36.4159 115.841C34.6147 115.841 33.4601 115.448 32.9521 114.662L32.7443 114.269C33.2061 113.588 33.437 112.279 33.437 110.34C33.437 107.354 32.3286 105.023 30.1118 103.347C27.895 101.618 25.3087 100.753 22.3529 100.753C19.4434 100.753 17.1342 101.644 15.4254 103.425C13.7166 105.206 12.8622 107.38 12.8622 109.947C12.8622 112.514 13.3702 114.662 14.3862 116.391C15.4485 118.067 16.8109 119.377 18.4735 120.32C20.1361 121.263 21.9604 122.101 23.9463 122.835C25.9784 123.568 27.9874 124.38 29.9733 125.271C32.0053 126.109 33.8527 127.157 35.5153 128.414C37.1779 129.619 38.5173 131.348 39.5333 133.6C40.5955 135.853 41.1266 138.577 41.1266 141.773C41.1266 147.378 39.3717 151.674 35.8617 154.66C32.3517 157.646 27.9412 159.139 22.63 159.139C17.3651 159.139 12.7698 157.62 8.84418 154.581C4.96474 151.49 3.02502 147.64 3.02502 143.03C3.02502 140.882 3.39449 139.206 4.13344 138.001C4.87238 136.743 5.74987 136.115 6.76591 136.115C8.56708 136.115 9.72167 136.455 10.2297 137.136L10.4375 137.529C10.0219 138.839 9.81404 140.437 9.81404 142.323C9.81404 145.885 11.0841 149.002 13.6242 151.674C16.2105 154.345 19.5819 155.681 23.7385 155.681C26.7404 155.681 29.3267 154.503 31.4973 152.145C33.668 149.735 34.7533 146.854 34.7533 143.501ZM69.1156 152.145C69.5774 152.564 69.8084 153.114 69.8084 153.795C69.8084 154.476 69.6005 155.053 69.1849 155.524H50.5497C48.8871 155.524 48.0558 154.765 48.0558 153.245C48.0558 152.564 48.2636 151.988 48.6793 151.517L56.1611 151.438V104.604H50.5497C48.8871 104.604 48.0558 103.844 48.0558 102.325C48.0558 101.696 48.2636 101.094 48.6793 100.518H67.3144C68.0996 100.518 68.7 100.753 69.1156 101.225C69.5774 101.644 69.8084 102.194 69.8084 102.875C69.8084 103.556 69.6005 104.132 69.1849 104.604H62.3959V151.438H67.3144C68.0996 151.438 68.7 151.674 69.1156 152.145ZM132.458 138.236C132.92 138.656 133.151 139.206 133.151 139.887C133.151 140.568 132.943 141.144 132.527 141.615H122.69L126.639 156.546C126.731 156.912 126.777 157.384 126.777 157.96C126.777 158.536 126.454 159.244 125.807 160.082C125.161 160.92 124.491 161.339 123.799 161.339C122.505 161.339 121.489 160.972 120.75 160.239L115.832 141.615H98.1665L94.7027 152.302C93.5019 155.917 91.7701 159.034 89.507 161.654C87.244 164.273 84.3114 165.583 80.709 165.583C77.9842 165.583 75.8597 164.771 74.3357 163.147C72.7654 161.523 71.9803 159.165 71.9803 156.074C71.9803 152.983 72.65 150.207 73.9893 147.745C75.2824 145.23 77.0143 143.266 79.185 141.851C83.5262 139.022 88.3755 137.608 93.7329 137.608L103.847 105.233C104.309 103.713 104.794 102.587 105.302 101.854C103.87 96.4054 103.154 93.4193 103.154 92.8954C103.154 92.3192 103.478 91.6905 104.124 91.0095C104.817 90.2761 105.51 89.9094 106.202 89.9094C107.542 89.9094 108.581 90.2761 109.32 91.0095L121.582 137.608L130.657 137.529C131.442 137.529 132.042 137.765 132.458 138.236ZM80.709 162.282C84.1728 162.282 87.1748 158.327 89.7149 150.416L92.4166 141.694C87.3364 141.694 83.2953 143.056 80.2934 145.78C77.3376 148.504 75.8597 152.093 75.8597 156.546C75.8597 158.379 76.2985 159.794 77.176 160.789C78.0996 161.784 79.2773 162.282 80.709 162.282ZM107.934 107.904L99.4827 137.608H114.723L107.934 107.904ZM182.709 137.608C182.94 137.293 183.332 137.136 183.887 137.136C184.487 137.136 184.972 137.372 185.341 137.844C185.711 138.315 185.895 139.206 185.895 140.515C185.895 141.825 185.503 143.58 184.718 145.78C183.979 147.928 182.87 150.102 181.393 152.302C179.915 154.45 177.86 156.231 175.227 157.646C172.641 159.06 169.731 159.768 166.498 159.768C159.017 159.768 153.013 157.043 148.487 151.595C143.96 146.095 141.697 138.289 141.697 128.178C141.697 118.015 143.821 110.393 148.071 105.311C152.366 100.177 157.977 97.6103 164.905 97.6103C169.385 97.6103 172.895 98.9199 175.435 101.539C177.975 104.159 179.245 107.066 179.245 110.262C179.245 111.571 178.899 112.619 178.206 113.405C177.513 114.191 176.82 114.584 176.128 114.584C174.834 114.584 173.957 114.269 173.495 113.641C173.772 112.855 173.911 111.886 173.911 110.733C173.911 107.904 173.103 105.652 171.486 103.975C169.916 102.299 167.607 101.461 164.559 101.461C159.986 101.461 156.084 103.949 152.851 108.926C149.664 113.85 148.071 120.399 148.071 128.571C148.071 136.743 149.849 143.344 153.405 148.373C156.961 153.35 161.233 155.839 166.221 155.839C171.209 155.839 175.204 154.136 178.206 150.731C181.208 147.273 182.709 142.899 182.709 137.608Z" fill="#FF6900"/>
</g>
<path d="M5.32263 190.584C5.32263 188.803 5.6767 187.205 6.38486 185.791C7.09301 184.358 8.05517 183.242 9.27135 182.438C10.5029 181.634 11.8653 181.233 13.3586 181.233C15.1136 181.233 16.6453 181.713 17.9539 182.674C19.2625 183.635 20.2169 184.997 20.8173 186.76H18.3003C17.8539 185.66 17.2073 184.813 16.3606 184.219C15.5292 183.625 14.5286 183.329 13.3586 183.329C12.2348 183.329 11.2265 183.625 10.3336 184.219C9.44068 184.813 8.74023 185.66 8.23221 186.76C7.72419 187.842 7.47018 189.117 7.47018 190.584C7.47018 192.033 7.72419 193.308 8.23221 194.409C8.74023 195.491 9.44068 196.329 10.3336 196.923C11.2265 197.517 12.2348 197.814 13.3586 197.814C14.5286 197.814 15.5292 197.526 16.3606 196.949C17.2073 196.355 17.8539 195.509 18.3003 194.409H20.8173C20.2169 196.155 19.2625 197.508 17.9539 198.469C16.6453 199.411 15.1136 199.883 13.3586 199.883C11.8653 199.883 10.5029 199.49 9.27135 198.704C8.05517 197.9 7.09301 196.792 6.38486 195.378C5.6767 193.963 5.32263 192.365 5.32263 190.584ZM40.0173 199.909C38.524 199.909 37.1616 199.516 35.9301 198.73C34.6984 197.927 33.7209 196.818 32.9974 195.404C32.2892 193.971 31.9352 192.365 31.9352 190.584C31.9352 188.803 32.2892 187.205 32.9974 185.791C33.7209 184.358 34.6984 183.25 35.9301 182.464C37.1616 181.66 38.524 181.259 40.0173 181.259C41.526 181.259 42.896 181.66 44.1277 182.464C45.3592 183.25 46.3291 184.35 47.0373 185.765C47.7453 187.179 48.0995 188.785 48.0995 190.584C48.0995 192.383 47.7453 193.989 47.0373 195.404C46.3291 196.818 45.3592 197.927 44.1277 198.73C42.896 199.516 41.526 199.909 40.0173 199.909ZM40.0173 197.84C41.141 197.84 42.1494 197.544 43.0424 196.949C43.9506 196.355 44.6588 195.509 45.1668 194.409C45.6901 193.308 45.952 192.033 45.952 190.584C45.952 189.117 45.6901 187.842 45.1668 186.76C44.6588 185.66 43.9583 184.813 43.0655 184.219C42.1725 183.625 41.1565 183.329 40.0173 183.329C38.878 183.329 37.862 183.625 36.9692 184.219C36.0763 184.813 35.3681 185.66 34.8448 186.76C34.3367 187.842 34.0827 189.117 34.0827 190.584C34.0827 192.033 34.3367 193.308 34.8448 194.409C35.3681 195.509 36.0763 196.355 36.9692 196.949C37.8774 197.544 38.8935 197.84 40.0173 197.84ZM75.9744 181.6V199.726H73.8731V186.21L68.5619 199.726H67.0841L61.7498 186.184V199.726H59.6485V181.6H61.9115L67.823 196.583L73.7345 181.6H75.9744ZM99.0738 186.812C99.0738 188.332 98.612 189.597 97.6883 190.61C96.7801 191.606 95.3869 192.103 93.5087 192.103H90.4144V199.726H88.313V181.469H93.5087C95.3253 181.469 96.7032 181.967 97.6421 182.962C98.5967 183.957 99.0738 185.241 99.0738 186.812ZM93.5087 190.139C94.6787 190.139 95.5408 189.851 96.095 189.275C96.6492 188.698 96.9263 187.878 96.9263 186.812C96.9263 184.56 95.7871 183.433 93.5087 183.433H90.4144V190.139H93.5087ZM119.974 195.666H112.955L111.661 199.726H109.445L115.264 181.574H117.688L123.484 199.726H121.268L119.974 195.666ZM119.374 193.727L116.464 184.507L113.555 193.727H119.374ZM147.45 199.726H145.349L136.897 185.188V199.726H134.795V181.443H136.897L145.349 195.954V181.443H147.45V199.726ZM171.076 181.469L165.834 192.837V199.726H163.733V192.837L158.468 181.469H160.8L164.772 190.715L168.744 181.469H171.076Z" fill="#FF6900"/>
<defs>
<filter id="filter0_d_440_103" x="1.02502" y="89.9094" width="186.87" height="79.6732" filterUnits="userSpaceOnUse" color-interpolation-filters="sRGB">
<feFlood flood-opacity="0" result="BackgroundImageFix"/>
<feColorMatrix in="SourceAlpha" type="matrix" values="0 0 0 0 0 0 0 0 0 0 0 0 0 0 0 0 0 0 127 0" result="hardAlpha"/>
<feOffset dy="2"/>
<feGaussianBlur stdDeviation="1"/>
<feColorMatrix type="matrix" values="0 0 0 0 0 0 0 0 0 0 0 0 0 0 0 0 0 0 0.25 0"/>
<feBlend mode="normal" in2="BackgroundImageFix" result="effect1_dropShadow_440_103"/>
<feBlend mode="normal" in="SourceGraphic" in2="effect1_dropShadow_440_103" result="shape"/>
</filter>
</defs>
</svg>
